<svg width="201" height="71" viewBox="0 0 201 71" fill="none" xmlns="http://www.w3.org/2000/svg">
<path d="M6.72813 68.6952C8.66962 69.8167 10.861 70.3775 13.3023 70.3775C15.609 70.3775 17.7331 69.8167 19.6746 68.6952C21.6353 67.5736 23.2019 66.0719 24.3745 64.19C25.5471 62.289 26.1334 60.198 26.1334 57.9169C26.1334 56.5672 25.9123 55.2651 25.4702 54.0105C25.0281 52.7369 24.3649 51.6153 23.4807 50.6459C22.6156 49.6574 21.5392 48.935 20.2513 48.4788C21.7314 47.8515 22.8848 46.787 23.7113 45.2852C24.5571 43.7645 24.98 42.1582 24.98 40.4664C24.98 38.3374 24.4226 36.4079 23.3077 34.6781C22.212 32.9292 20.751 31.5415 18.9249 30.515C17.118 29.4695 15.1573 28.9468 13.0428 28.9468C11.4281 28.9468 9.88065 29.2509 8.4005 29.8592C6.93958 30.4485 5.63244 31.2754 4.47909 32.3399C3.34495 33.3854 2.44149 34.6115 1.76869 36.0182C1.11512 37.4059 0.78834 38.8886 0.78834 40.4664H6.7858C6.7858 39.4399 7.09336 38.5084 7.70849 37.672C8.32361 36.8166 9.11174 36.1418 10.0729 35.6475C11.0532 35.1343 12.072 34.8777 13.1293 34.8777C14.1481 34.8777 15.0996 35.1343 15.9838 35.6475C16.8873 36.1418 17.6081 36.8166 18.1464 37.672C18.7038 38.5084 18.9826 39.4399 18.9826 40.4664C18.9826 42.4243 18.2233 43.8976 16.7047 44.886C15.1861 45.8745 13.1581 46.3688 10.6207 46.3688V51.0451C12.4853 51.0451 14.1288 51.3017 15.5513 51.8149C16.993 52.3092 18.1175 53.0695 18.9249 54.096C19.7322 55.1225 20.1359 56.3962 20.1359 57.9169C20.1359 59.1145 19.8187 60.2075 19.1844 61.196C18.5501 62.1845 17.7139 62.9734 16.6758 63.5627C15.6378 64.1519 14.5133 64.4466 13.3023 64.4466C11.9567 64.4466 10.7745 64.1519 9.7557 63.5627C8.7369 62.9734 7.93916 62.1845 7.36248 61.196C6.7858 60.2075 6.49746 59.1145 6.49746 57.9169H0.5C0.5 60.217 1.05746 62.308 2.17237 64.19C3.28728 66.0719 4.80587 67.5736 6.72813 68.6952Z" fill="#235BAA"/>
<path d="M50.0051 70.2041C47.188 70.2041 44.5495 69.6888 42.0895 68.6584C39.6295 67.5883 37.4671 66.1219 35.6022 64.2592C33.7771 62.3568 32.3288 60.1573 31.2576 57.6604C30.2259 55.1239 29.7101 52.4091 29.7101 49.516C29.7101 46.6624 30.2259 43.9873 31.2576 41.4904C32.3288 38.9936 33.7771 36.8138 35.6022 34.9511C37.4671 33.0487 39.6295 31.5823 42.0895 30.5519C44.5495 29.4818 47.188 28.9468 50.0051 28.9468C52.2667 28.9468 54.4291 29.3233 56.4923 30.0763C58.5952 30.7897 60.4799 31.8598 62.1464 33.2865C63.8128 34.6737 65.142 36.3382 66.1339 38.2802L61.1941 41.1337C60.0038 39.1125 58.4365 37.547 56.4923 36.4373C54.5878 35.288 52.3461 34.7133 49.767 34.7133C47.8228 34.7133 46.0175 35.0898 44.3511 35.8428C42.6846 36.5958 41.2166 37.6461 39.9469 38.9936C38.7169 40.3411 37.7448 41.9264 37.0306 43.7495C36.3164 45.5329 35.9593 47.4551 35.9593 49.516C35.9593 51.6561 36.2966 53.6377 36.9711 55.4608C37.6853 57.2839 38.6574 58.8692 39.8874 60.2167C41.1571 61.5246 42.6251 62.555 44.2916 63.308C45.9977 64.061 47.8228 64.4375 49.767 64.4375C52.3461 64.4375 54.6077 63.8827 56.5519 62.773C58.4961 61.6236 60.0435 60.0582 61.1941 58.0765L66.1339 60.9301C65.142 62.8721 63.8128 64.5366 62.1464 65.9238C60.4799 67.3109 58.5952 68.381 56.4923 69.134C54.4291 69.8474 52.2667 70.2041 50.0051 70.2041Z" fill="#235BAA"/>
<path d="M70.5265 28.9468H76.4186V69.4833H70.5265V28.9468Z" fill="#235BAA"/>
<path fill-rule="evenodd" clip-rule="evenodd" d="M89.3498 68.1828C91.6908 69.4907 94.3293 70.1446 97.2655 70.1446C100.122 70.1446 102.681 69.4907 104.943 68.1828C107.205 66.8749 108.97 64.9726 110.24 62.4757L105.717 60.1572C104.844 61.7425 103.654 62.9315 102.146 63.7242C100.678 64.5168 99.0311 64.9131 97.206 64.9131C95.1824 64.9131 93.4168 64.4375 91.909 63.4864C90.4013 62.4956 89.2506 61.1877 88.4571 59.5628C87.9823 58.5905 87.6708 57.5403 87.5227 56.412H110.835V54.0341C110.835 51.3391 110.24 48.9017 109.05 46.7219C107.899 44.5025 106.252 42.7586 104.11 41.4904C102.007 40.1825 99.4874 39.5286 96.5513 39.5286C93.6151 39.5286 91.0361 40.2222 88.8142 41.6093C86.5923 42.9568 84.8663 44.7997 83.6363 47.138C82.4063 49.4367 81.7913 51.9732 81.7913 54.7474C81.7913 57.7199 82.4658 60.3752 83.8148 62.7135C85.1639 65.0122 87.0089 66.8353 89.3498 68.1828ZM104.943 52.6073H87.7429C87.981 51.1409 88.4571 49.8132 89.1713 48.6242C89.9252 47.4353 90.9171 46.5039 92.1471 45.8302C93.4168 45.1564 94.865 44.8195 96.4918 44.8195C98.0789 44.8195 99.4874 45.1366 100.717 45.7707C101.987 46.4048 102.979 47.3164 103.693 48.5053C104.447 49.6943 104.864 51.0616 104.943 52.6073Z" fill="#235BAA"/>
<path fill-rule="evenodd" clip-rule="evenodd" d="M128.285 70.2041C125.468 70.2041 122.948 69.5105 120.726 68.1234C118.544 66.7362 116.818 64.8933 115.549 62.5946C114.279 60.2563 113.644 57.6802 113.644 54.8663C113.644 52.0921 114.319 49.5556 115.668 47.2569C117.056 44.9186 118.921 43.0757 121.262 41.7282C123.603 40.3411 126.242 39.6475 129.178 39.6475C132.114 39.6475 134.752 40.3213 137.093 41.6688C139.434 42.9766 141.279 44.7799 142.628 47.0786C144.017 49.3773 144.711 51.9732 144.711 54.8663V69.4907H139.117V64.3438C138.077 66.0389 136.688 67.4177 134.951 68.48C133.046 69.6294 130.824 70.2041 128.285 70.2041ZM129.178 64.6159C131.003 64.6159 132.649 64.1799 134.118 63.308C135.586 62.4361 136.736 61.267 137.569 59.8006C138.403 58.2945 138.819 56.6696 138.819 54.9258C138.819 53.1423 138.403 51.5174 137.569 50.051C136.736 48.5846 135.586 47.4155 134.118 46.5435C132.649 45.632 131.003 45.1762 129.178 45.1762C127.353 45.1762 125.706 45.632 124.238 46.5435C122.809 47.4155 121.659 48.5846 120.786 50.051C119.953 51.5174 119.536 53.1423 119.536 54.9258C119.536 56.6696 119.953 58.2945 120.786 59.8006C121.659 61.267 122.809 62.4361 124.238 63.308C125.706 64.1799 127.353 64.6159 129.178 64.6159Z" fill="#235BAA"/>
<path d="M160.472 46.7219C161.742 45.7707 163.329 45.2951 165.233 45.2951C167.217 45.2951 168.844 45.7707 170.114 46.7219C171.423 47.6731 172.395 48.9215 173.03 50.4671C173.704 51.9732 174.042 53.6377 174.042 55.4608V69.4907H179.934V54.7474C179.934 51.9335 179.358 49.3971 178.208 47.138C177.097 44.8393 175.45 43.0163 173.268 41.6688C171.125 40.3213 168.447 39.6475 165.233 39.6475C162.099 39.6475 159.46 40.3213 157.318 41.6688C155.175 43.0163 153.548 44.8393 152.437 47.138C151.326 49.3971 150.771 51.9534 150.771 54.8069V69.4907H156.663V55.4014C156.663 53.5783 156.98 51.9137 157.615 50.4077C158.25 48.9017 159.202 47.6731 160.472 46.7219Z" fill="#235BAA"/>
<g clip-path="url(#clip0_8353_36944)">
<path d="M173.4 33.6376C173.4 37.2998 176.361 40.2722 180.018 40.2731C183.675 40.2722 186.636 37.2998 186.636 33.6376V33.6189C186.637 32.5973 186.368 31.5959 185.859 30.7111C185.148 29.477 183.941 27.3824 182.809 25.4162C181.363 22.9054 180.037 20.6041 180.018 20.5715H168.338C167.319 20.5715 166.319 20.8394 165.437 21.3502L165.421 21.3597C162.256 23.1907 161.169 27.2475 162.996 30.4223C164.826 33.5962 168.875 34.6807 172.039 32.8494C172.053 32.8412 172.067 32.8329 172.081 32.8247C172.607 32.521 173.158 32.2029 173.558 31.7883C173.4 32.3412 173.4 32.9766 173.4 33.5829C173.4 33.6012 173.4 33.6194 173.4 33.6376Z" fill="#FCC60E"/>
<path d="M197.765 30.0046C199.593 26.8298 198.505 22.773 195.341 20.942L195.297 20.9163C194.772 20.6124 194.222 20.2939 193.665 20.1538C194.222 20.014 194.772 19.6955 195.297 19.3916L195.341 19.3659C198.505 17.535 199.593 13.4781 197.765 10.3033C195.936 7.12912 191.887 6.04463 188.723 7.87592L188.717 7.87933C188.714 7.88132 188.71 7.88327 188.707 7.88508C187.824 8.3959 187.093 9.12974 186.583 10.0146C184.965 12.8245 180.777 20.096 180.743 20.1538C180.758 20.1803 181.638 21.7077 182.744 23.6279L182.752 23.6417C184.07 25.9288 185.705 28.7684 186.584 30.2933C187.093 31.1782 187.824 31.912 188.707 32.4225L188.714 32.4267C188.717 32.4285 188.72 32.4302 188.723 32.432C191.887 34.263 195.936 33.1785 197.765 30.0046Z" fill="#FCC60E"/>
<path d="M180.018 0.034668C176.361 0.0356152 173.4 3.00795 173.4 6.67021L173.4 6.72485C173.4 7.33116 173.4 7.96657 173.558 8.51951C173.158 8.10495 172.607 7.78681 172.081 7.48316L172.039 7.45839C168.875 5.6271 164.826 6.7116 162.996 9.88547C161.169 13.0603 162.256 17.1171 165.421 18.9481L165.437 18.9576C166.319 19.4684 167.319 19.7363 168.338 19.7363H180.018C180.04 19.6977 181.895 16.4774 183.613 13.4956L185.859 9.59705C186.368 8.71189 186.637 7.71048 186.636 6.68885V6.67021C186.636 3.00795 183.675 0.0356152 180.018 0.034668Z" fill="#FCC60E"/>
</g>
<defs>
<clipPath id="clip0_8353_36944">
<rect width="40.2384" height="40.2385" fill="white" transform="translate(160.262 0.034668)"/>
</clipPath>
</defs>
</svg>
