<svg width="233" height="171" viewBox="0 0 233 171" fill="none" xmlns="http://www.w3.org/2000/svg">
<path d="M51.7281 47.1895L8.26904 76.1572L51.076 139.922L94.535 110.954L51.7281 47.1895Z" fill="#F5F5F5"/>
<path d="M72.0787 107.935L71.583 110.976L49.9775 107.873L50.4733 104.832L72.0787 107.935Z" fill="#E0E0E0"/>
<path d="M61.1988 97.0859L64.2975 97.5298L60.8618 118.726L57.7593 118.279L61.1988 97.0859Z" fill="#E0E0E0"/>
<path d="M41.2977 70.147C41.3287 70.1895 36.9712 73.1497 31.5718 76.7468C26.1724 80.3439 21.7606 83.2308 21.7297 83.1845C21.6987 83.1382 26.0523 80.1818 31.4595 76.5809C36.8666 72.9799 41.2667 70.1007 41.2977 70.147Z" fill="#E0E0E0"/>
<path d="M57.2788 66.1488C57.3098 66.1951 50.0667 71.0735 41.1038 77.0481C32.1409 83.0226 24.8358 87.8277 24.8164 87.7853C24.7971 87.7428 32.0247 82.8566 40.9915 76.8821C49.9582 70.9076 57.2478 66.1025 57.2788 66.1488Z" fill="#E0E0E0"/>
<path d="M60.4821 70.9183C60.513 70.9646 53.2699 75.8469 44.307 81.8215C35.3442 87.796 28.0391 92.6011 28.0391 92.5548C28.0391 92.5085 35.2473 87.63 44.1947 81.6516C53.1421 75.6732 60.4511 70.872 60.4821 70.9183Z" fill="#E0E0E0"/>
<path d="M63.6856 75.6927C63.7165 75.739 56.4773 80.6213 47.5144 86.592C38.5515 92.5627 31.2464 97.3755 31.2232 97.3292C31.2 97.2829 38.4353 92.4006 47.4021 86.426C56.3688 80.4515 63.6546 75.6464 63.6856 75.6927Z" fill="#E0E0E0"/>
<path d="M66.8926 80.4671C66.9235 80.5134 59.6804 85.3919 50.7175 91.3664C41.7547 97.341 34.4496 102.146 34.4263 102.1C34.4031 102.053 41.6385 97.175 50.6052 91.2005C59.572 85.2259 66.8616 80.4208 66.8926 80.4671Z" fill="#E0E0E0"/>
<path d="M197.05 89.9149L160.551 114.243L196.501 167.794L233 143.465L197.05 89.9149Z" fill="#F5F5F5"/>
<path d="M214.145 140.942L213.731 143.497L195.584 140.892L195.998 138.337L214.145 140.942Z" fill="#E0E0E0"/>
<path d="M205.004 131.83L207.611 132.204L204.721 150.005L202.118 149.63L205.004 131.83Z" fill="#E0E0E0"/>
<path d="M188.294 109.225C188.325 109.271 184.669 111.761 180.133 114.783C175.597 117.805 171.891 120.221 171.86 120.186C171.829 120.151 175.481 117.654 180.021 114.628C184.56 111.602 188.263 109.159 188.294 109.225Z" fill="#E0E0E0"/>
<path d="M201.715 105.847C201.746 105.893 195.669 110 188.159 115.013C180.648 120.027 174.501 124.064 174.47 124.018C174.439 123.971 180.517 119.865 188.046 114.847C195.576 109.83 201.684 105.801 201.715 105.847Z" fill="#E0E0E0"/>
<path d="M204.407 109.854C204.438 109.9 198.357 114.007 190.831 119.024C183.305 124.041 177.174 128.071 177.143 128.024C177.112 127.978 183.208 123.891 190.719 118.874C198.229 113.856 204.376 109.811 204.407 109.854Z" fill="#E0E0E0"/>
<path d="M207.095 113.856C207.126 113.902 201.049 118.009 193.539 123.026C186.028 128.043 179.881 132.073 179.85 132.026C179.819 131.98 185.896 127.877 193.407 122.856C200.917 117.835 207.064 113.817 207.095 113.856Z" fill="#E0E0E0"/>
<path d="M209.787 117.873C209.818 117.92 203.741 122.022 196.211 127.04C188.682 132.057 182.554 136.087 182.523 136.044C182.492 136.002 188.569 131.891 196.08 126.874C203.59 121.856 209.756 117.827 209.787 117.873Z" fill="#E0E0E0"/>
<path d="M139.307 49.5308L99.4819 28.3066L68.1182 86.7382L107.943 107.962L139.307 49.5308Z" fill="#F5F5F5"/>
<path d="M101.129 89.6835L98.6032 90.5442L92.189 72.8792L94.7144 72.0146L101.129 89.6835Z" fill="#E0E0E0"/>
<path d="M105.002 77.0088L105.924 79.5445L88.3159 85.5538L87.394 83.0181L105.002 77.0088Z" fill="#E0E0E0"/>
<path d="M117.513 50.9461C117.482 51.004 113.442 48.9121 108.492 46.276C103.542 43.64 99.5522 41.4516 99.5832 41.3938C99.6142 41.3359 103.654 43.4277 108.604 46.0638C113.554 48.6998 117.544 50.8843 117.513 50.9461Z" fill="#E0E0E0"/>
<path d="M127.069 61.4552C127.038 61.5131 120.352 58.0087 112.141 53.632C103.929 49.2553 97.2904 45.6582 97.3214 45.6003C97.3524 45.5424 104.038 49.043 112.253 53.4236C120.468 57.8041 127.1 61.3973 127.069 61.4552Z" fill="#E0E0E0"/>
<path d="M124.721 65.8283C124.69 65.8862 118.005 62.3856 109.794 58.0089C101.582 53.6322 94.9432 50.0313 94.9742 49.9734C95.0052 49.9155 101.691 53.4199 109.906 57.7966C118.121 62.1733 124.752 65.7704 124.721 65.8283Z" fill="#E0E0E0"/>
<path d="M122.374 70.2007C122.343 70.2586 115.658 66.758 107.446 62.3813C99.235 58.0046 92.5961 54.4191 92.6271 54.3496C92.658 54.2802 99.3434 57.7923 107.559 62.169C115.774 66.5457 122.397 70.1428 122.374 70.2007Z" fill="#E0E0E0"/>
<path d="M120.027 74.5734C119.996 74.6313 113.311 71.1308 105.099 66.7541C96.8878 62.3774 90.2489 58.7803 90.2799 58.7224C90.3109 58.6645 96.9962 62.1651 105.212 66.5418C113.427 70.9185 120.074 74.5156 120.027 74.5734Z" fill="#E0E0E0"/>
<path opacity="0.2" d="M120.236 0H119.237V16.9742H120.236V0Z" fill="#938F8F"/>
<path d="M96.4072 37.5102H143.065C143.065 37.5102 138.758 16.9814 119.384 16.9814C102.148 16.9814 96.4072 37.5102 96.4072 37.5102Z" fill="#898A8D"/>
<path d="M120.236 0H119.237V16.9742H120.236V0Z" fill="#898A8D"/>
<path d="M223.619 169.754C223.619 169.808 173.556 169.854 111.815 169.854C50.0744 169.854 0 169.819 0 169.754C0 169.688 50.0511 169.653 111.815 169.653C173.579 169.653 223.619 169.696 223.619 169.754Z" fill="#909598"/>
<path d="M12.3946 145.581C13.05 145.628 13.6892 145.806 14.2742 146.104C14.8591 146.403 15.3777 146.815 15.7992 147.318C16.6344 148.329 17.2266 149.517 17.5306 150.791C18.1852 153.231 17.7824 156.114 17.0852 158.541C14.4319 157.596 12.7974 154.778 12.0499 153.296C10.8879 150.957 10.1984 146.017 12.3868 145.577" fill="#898A8D"/>
<path d="M20.8811 161.502C20.4834 160.887 20.2557 160.179 20.221 159.448C20.1863 158.717 20.3458 157.991 20.6835 157.341C21.033 156.698 21.5076 156.131 22.0795 155.673C22.6515 155.216 23.3093 154.876 24.0146 154.674C24.6614 154.474 25.409 154.392 25.9745 154.767C26.227 154.958 26.4238 155.213 26.5443 155.506C26.6648 155.798 26.7048 156.117 26.6601 156.43C26.5566 157.057 26.2894 157.645 25.8854 158.136C24.5956 159.877 23.0269 161.324 20.8501 161.502" fill="#898A8D"/>
<path d="M21.1717 169.657C21.1169 169.492 21.078 169.323 21.0555 169.151C20.9819 168.789 20.8928 168.322 20.7805 167.762C20.4312 166.23 20.3331 164.651 20.49 163.088C20.6751 161.518 21.2753 160.025 22.2291 158.762C22.5234 158.385 22.8615 158.044 23.2362 157.746C23.3367 157.666 23.4414 157.592 23.5499 157.523C23.5864 157.494 23.6268 157.471 23.67 157.453C23.1789 157.869 22.7312 158.333 22.3337 158.839C21.4266 160.102 20.855 161.573 20.672 163.115C20.4241 164.914 20.7301 166.562 20.9083 167.746C21.0051 168.337 21.0787 168.816 21.1252 169.147C21.156 169.316 21.1715 169.486 21.1717 169.657Z" fill="#909598"/>
<path d="M13.2314 149.298C13.2757 149.359 13.3121 149.425 13.3399 149.495L13.611 150.085C13.8473 150.599 14.1765 151.343 14.5755 152.266C15.3734 154.115 16.4424 156.685 17.5541 159.549C18.6657 162.413 19.6186 165.025 20.2654 166.928C20.5946 167.878 20.858 168.649 21.0401 169.186L21.2376 169.803C21.2629 169.875 21.2823 169.949 21.2957 170.023C21.2564 169.958 21.2252 169.888 21.2028 169.815C21.1447 169.661 21.0672 169.46 20.9742 169.209L20.1415 166.971C19.452 165.083 18.4837 162.474 17.3682 159.614C16.2526 156.754 15.2068 154.176 14.4399 152.316C14.0526 151.401 13.7543 150.656 13.5297 150.112C13.4329 149.865 13.3515 149.668 13.2895 149.51C13.2644 149.441 13.245 149.37 13.2314 149.298Z" fill="#909598"/>
<path d="M18.0266 164.261C17.2289 162.938 16.1263 161.823 14.8101 161.009C13.494 160.195 12.0021 159.705 10.4581 159.579C9.68346 159.525 8.73449 159.656 8.38202 160.351C8.02955 161.046 8.50209 161.895 9.03661 162.458C10.172 163.643 11.634 164.465 13.2381 164.822C14.8422 165.18 16.5165 165.055 18.0498 164.465" fill="#898A8D"/>
<path d="M11.6588 161.671C11.8217 161.663 11.985 161.67 12.1468 161.691C12.3391 161.701 12.5305 161.723 12.72 161.756C12.9408 161.799 13.1965 161.822 13.4715 161.899C13.7745 161.963 14.0734 162.046 14.3662 162.146C14.705 162.256 15.0374 162.385 15.3617 162.532C16.1054 162.866 16.8095 163.282 17.461 163.771C18.1027 164.274 18.6837 164.849 19.1924 165.485C19.4148 165.758 19.6192 166.046 19.8044 166.345C19.9717 166.605 20.123 166.874 20.2575 167.152C20.397 167.399 20.4783 167.642 20.5713 167.847C20.6479 168.022 20.7126 168.203 20.7649 168.387C20.8223 168.541 20.8651 168.7 20.8928 168.862C20.854 168.862 20.6642 168.198 20.1452 167.21C20.0028 166.944 19.8464 166.687 19.6765 166.438C19.4883 166.138 19.2827 165.849 19.0607 165.573C18.5517 164.957 17.9777 164.397 17.3487 163.902C16.7089 163.42 16.0194 163.008 15.2919 162.671C14.9511 162.524 14.6296 162.385 14.3159 162.285C14.0293 162.18 13.7371 162.091 13.4405 162.019C12.3521 161.749 11.651 161.714 11.6588 161.671Z" fill="#909598"/>
<path d="M187.469 40.711C186.33 40.9696 185.776 42.2779 185.668 43.4358C185.559 44.5937 185.706 45.821 185.218 46.8785C184.668 48.0672 183.355 48.9472 183.309 50.2556C183.286 51.0545 183.758 51.7994 183.739 52.606C183.7 53.9183 182.356 54.9217 182.286 56.2185C182.236 57.1641 182.867 58.0673 182.716 59.0013C182.596 59.7268 182.031 60.2981 181.79 60.9928C181.31 62.3822 182.267 63.9067 183.514 64.6863C184.21 65.1234 184.994 65.4035 185.81 65.507C186.626 65.6105 187.455 65.535 188.239 65.2857C189.022 65.0364 189.742 64.6194 190.347 64.0638C190.952 63.5083 191.428 62.8276 191.741 62.0696C192.43 60.4023 192.279 58.5227 192.128 56.728C191.661 51.1291 191.314 45.5225 191.086 39.9082" fill="#909598"/>
<path d="M184.173 60.4633C184.405 60.3171 184.587 60.1027 184.692 59.8496C184.807 59.5484 184.853 59.2253 184.827 58.904C184.783 58.4788 184.688 58.0603 184.545 57.6574C184.357 57.1521 184.289 56.6108 184.343 56.075C184.44 55.4729 184.87 54.9789 185.265 54.4926C185.474 54.2536 185.65 53.9874 185.788 53.7014C185.923 53.4108 185.945 53.0809 185.85 52.7751C185.649 52.146 185.029 51.6828 184.742 50.9534C184.612 50.5917 184.591 50.2001 184.68 49.8264C184.768 49.4763 184.898 49.1381 185.068 48.8191C185.395 48.2447 185.655 47.6347 185.842 47.0012C186.117 45.7778 185.989 44.6083 186.175 43.6473C186.277 42.8781 186.619 42.16 187.151 41.594C187.303 41.4406 187.477 41.3105 187.667 41.2081C187.731 41.1744 187.8 41.1498 187.872 41.1348C187.628 41.2668 187.405 41.4332 187.21 41.6288C186.713 42.1989 186.401 42.9052 186.315 43.655C186.247 44.1669 186.211 44.6825 186.206 45.1988C186.204 45.8066 186.143 46.4128 186.024 47.009C185.84 47.657 185.58 48.2813 185.25 48.8692C184.959 49.4752 184.692 50.1853 184.948 50.8492C185.203 51.513 185.819 51.9723 186.051 52.6825C186.162 53.0326 186.137 53.411 185.982 53.7438C185.834 54.0451 185.646 54.3255 185.424 54.5775C185.037 55.0638 184.614 55.5269 184.521 56.0673C184.467 56.5795 184.527 57.0973 184.696 57.584C184.837 57.9983 184.924 58.429 184.955 58.8654C184.972 59.2011 184.913 59.5363 184.781 59.8457C184.698 60.0393 184.564 60.2073 184.394 60.332C184.33 60.3909 184.255 60.4356 184.173 60.4633Z" fill="#80878A"/>
<path d="M181.125 69.6143L177.639 79.649L163.059 80.4209L160.627 85.8243L175.849 87.3681C176.568 87.6643 177.341 87.812 178.119 87.8022C178.897 87.7923 179.665 87.6252 180.377 87.3109C181.089 86.9967 181.729 86.5417 182.259 85.9737C182.789 85.4057 183.197 84.7364 183.46 84.0064L187.523 72.7057L181.125 69.6143Z" fill="#EBE4E2"/>
<path d="M211.282 164.301C211.282 164.301 200.595 130.483 200.371 129.387C200.165 128.392 204.244 104.057 204.763 97.7393L190.323 98.2757V98.4185L184.188 98.7582L189.684 167.89H196.327L195.669 144.945C199.767 155.902 205.635 167.072 205.635 167.072L211.282 164.301Z" fill="#EBE4E2"/>
<path d="M195.94 153.177C195.94 152.969 195.858 145.489 195.858 145.489C195.777 145.937 193.314 138.997 193.372 138.577C193.403 138.357 195.94 153.177 195.94 153.177Z" fill="#E7E1E0"/>
<path d="M193.089 135.288C193.057 135.426 193.043 135.567 193.046 135.709C193.046 135.979 193.046 136.373 193.046 136.867C193.046 137.11 193.081 137.372 193.112 137.658C193.143 137.943 193.186 138.244 193.252 138.557C193.386 139.24 193.567 139.913 193.794 140.572C194.278 141.973 194.809 143.196 195.188 144.084L195.649 145.13C195.697 145.267 195.763 145.397 195.847 145.516C195.826 145.382 195.787 145.253 195.731 145.13C195.642 144.875 195.506 144.508 195.343 144.057C195.002 143.154 194.495 141.919 194.015 140.533C193.792 139.883 193.609 139.221 193.465 138.549C193.391 138.241 193.349 137.943 193.306 137.666C193.263 137.388 193.232 137.125 193.213 136.894C193.166 136.415 193.147 136.029 193.135 135.759C193.143 135.601 193.128 135.442 193.089 135.288Z" fill="#E7E1E0"/>
<path d="M189.557 168.241V167.619L196.362 167.322L196.381 169.889L195.959 169.916C194.092 170.024 186.454 170.34 185.203 169.966C183.809 169.549 189.557 168.241 189.557 168.241Z" fill="#80878A"/>
<path d="M196.475 169.734C196.436 169.737 196.397 169.737 196.358 169.734L196.025 169.758L194.794 169.812C193.756 169.854 192.319 169.893 190.73 169.9C189.142 169.908 187.705 169.881 186.667 169.85L185.436 169.8H185.103H184.986C185.025 169.797 185.064 169.797 185.103 169.8H185.436L186.667 169.823C187.709 169.823 189.142 169.854 190.73 169.846C192.319 169.839 193.752 169.812 194.794 169.785L196.021 169.754H196.475V169.734Z" fill="#909598"/>
<path d="M187.353 169.95C187.3 169.747 187.222 169.551 187.12 169.367C187 169.196 186.859 169.039 186.702 168.9C186.904 168.99 187.074 169.138 187.191 169.325C187.307 169.512 187.363 169.73 187.353 169.95Z" fill="#909598"/>
<path d="M189.347 168.935C189.328 168.935 189.231 168.831 189.134 168.677C189.037 168.522 188.968 168.387 188.987 168.376C189.006 168.364 189.103 168.476 189.204 168.631C189.305 168.785 189.367 168.924 189.347 168.935Z" fill="#909598"/>
<path d="M189.894 168.662C189.894 168.681 189.774 168.608 189.657 168.503C189.541 168.399 189.456 168.303 189.472 168.287C189.487 168.272 189.595 168.341 189.712 168.446C189.828 168.55 189.909 168.627 189.894 168.662Z" fill="#909598"/>
<path d="M190.238 168.005C190.126 168.048 190.005 168.064 189.886 168.052C189.767 168.067 189.646 168.055 189.533 168.017C189.646 167.974 189.766 167.959 189.886 167.971C190.004 167.955 190.125 167.967 190.238 168.005Z" fill="#909598"/>
<path d="M190.358 167.557C190.243 167.632 190.109 167.672 189.971 167.673C189.833 167.694 189.692 167.675 189.564 167.619C189.692 167.597 189.822 167.587 189.952 167.588C190.086 167.564 190.222 167.554 190.358 167.557Z" fill="#909598"/>
<path d="M189.115 168.345C188.972 168.372 188.825 168.372 188.681 168.345C188.524 168.327 188.368 168.293 188.217 168.245C188.125 168.22 188.036 168.183 187.953 168.137C187.901 168.108 187.862 168.059 187.845 168.002C187.838 167.97 187.84 167.936 187.852 167.905C187.864 167.874 187.884 167.848 187.911 167.828C188.077 167.746 188.266 167.724 188.446 167.766C188.627 167.808 188.787 167.912 188.898 168.06C188.966 168.144 189.014 168.243 189.038 168.349C189.046 168.387 189.046 168.427 189.038 168.465C188.994 168.325 188.926 168.195 188.836 168.079C188.733 167.964 188.598 167.881 188.449 167.84C188.278 167.784 188.091 167.798 187.93 167.878C187.86 167.928 187.887 168.009 187.965 168.056C188.043 168.098 188.125 168.133 188.209 168.16C188.356 168.207 188.506 168.245 188.658 168.272C188.949 168.334 189.115 168.334 189.115 168.345Z" fill="#909598"/>
<path d="M189.018 168.368C188.967 168.276 188.949 168.17 188.968 168.067C188.983 167.954 189.022 167.846 189.084 167.75C189.121 167.685 189.174 167.631 189.237 167.592C189.301 167.553 189.374 167.53 189.448 167.526C189.492 167.537 189.53 167.563 189.554 167.6C189.579 167.638 189.588 167.683 189.58 167.727C189.572 167.796 189.548 167.862 189.51 167.92C189.451 168.016 189.383 168.105 189.305 168.186C189.238 168.263 189.152 168.323 189.057 168.36C189.057 168.36 189.142 168.283 189.262 168.144C189.332 168.064 189.393 167.978 189.444 167.885C189.502 167.793 189.541 167.627 189.444 167.607C189.348 167.588 189.224 167.708 189.158 167.793C189.099 167.878 189.058 167.973 189.038 168.074C189.022 168.171 189.015 168.27 189.018 168.368Z" fill="#909598"/>
<path d="M196.331 167.889C196.331 167.889 196.137 167.889 195.831 167.909C195.432 167.954 195.054 168.112 194.741 168.362C194.428 168.613 194.192 168.947 194.061 169.325C193.96 169.615 193.949 169.811 193.933 169.808C193.926 169.763 193.926 169.717 193.933 169.672C193.945 169.548 193.97 169.425 194.007 169.306C194.129 168.91 194.366 168.559 194.689 168.298C195.013 168.04 195.409 167.885 195.824 167.855C195.952 167.839 196.082 167.839 196.211 167.855C196.252 167.861 196.292 167.873 196.331 167.889Z" fill="#909598"/>
<path d="M193.07 169.194C192.415 169.315 191.745 169.315 191.09 169.194C191.09 169.171 191.536 169.194 192.082 169.194C192.628 169.194 193.07 169.171 193.07 169.194Z" fill="#909598"/>
<path d="M194.398 169.182C194.398 169.182 194.36 169.275 194.317 169.375C194.274 169.476 194.247 169.568 194.224 169.564C194.201 169.561 194.189 169.46 194.243 169.341C194.298 169.221 194.383 169.163 194.398 169.182Z" fill="#909598"/>
<path d="M194.894 168.561C194.894 168.561 194.867 168.646 194.797 168.716C194.728 168.785 194.658 168.831 194.642 168.816C194.627 168.801 194.669 168.731 194.739 168.658C194.809 168.584 194.879 168.542 194.894 168.561Z" fill="#909598"/>
<path d="M195.603 168.276C195.603 168.299 195.506 168.299 195.409 168.334C195.312 168.368 195.239 168.422 195.219 168.407C195.2 168.391 195.258 168.299 195.382 168.256C195.506 168.214 195.603 168.252 195.603 168.276Z" fill="#909598"/>
<path d="M196.118 168.137C196.118 168.16 196.087 168.194 196.033 168.214C195.978 168.233 195.924 168.237 195.917 168.214C195.909 168.191 195.948 168.156 196.002 168.137C196.056 168.117 196.11 168.117 196.118 168.137Z" fill="#909598"/>
<path d="M205.503 167.643L205.244 167.075L211.333 164.03L212.402 166.346L212.014 166.543C210.356 167.403 203.516 170.808 202.222 170.977C200.797 171.182 205.503 167.643 205.503 167.643Z" fill="#80878A"/>
<path d="M212.425 166.18C212.425 166.18 212.394 166.203 212.324 166.241L212.03 166.396L210.93 166.952C210 167.411 208.702 168.032 207.258 168.688C205.813 169.344 204.492 169.904 203.531 170.302L202.369 170.761L202.056 170.881C202.021 170.897 201.985 170.909 201.947 170.915L202.052 170.865L202.358 170.73L203.489 170.248C204.446 169.839 205.762 169.267 207.203 168.611C208.644 167.955 209.946 167.345 210.883 166.898L211.995 166.369L212.297 166.226L212.425 166.18Z" fill="#909598"/>
<path d="M204.194 170.105C204.06 169.94 203.907 169.792 203.737 169.665C203.555 169.559 203.361 169.473 203.16 169.41C203.382 169.395 203.602 169.461 203.779 169.596C203.978 169.706 204.127 169.888 204.194 170.105Z" fill="#909598"/>
<path d="M205.596 168.36C205.596 168.36 205.449 168.314 205.294 168.214C205.139 168.113 205.027 168.017 205.038 167.998C205.05 167.978 205.186 168.044 205.341 168.144C205.495 168.245 205.608 168.341 205.596 168.36Z" fill="#909598"/>
<path d="M205.976 167.889C205.879 167.899 205.782 167.883 205.693 167.843C205.542 167.793 205.426 167.739 205.433 167.715C205.53 167.706 205.628 167.722 205.716 167.762C205.867 167.797 205.983 167.851 205.976 167.889Z" fill="#909598"/>
<path d="M206.026 167.148C206.026 167.172 205.902 167.253 205.724 167.338C205.621 167.398 205.506 167.436 205.387 167.449C205.387 167.426 205.511 167.345 205.689 167.26C205.792 167.2 205.907 167.162 206.026 167.148Z" fill="#909598"/>
<path d="M205.949 166.693C205.949 166.693 205.84 166.847 205.639 166.959C205.524 167.036 205.389 167.076 205.251 167.075C205.364 167.001 205.483 166.938 205.608 166.886C205.79 166.781 205.933 166.673 205.949 166.693Z" fill="#909598"/>
<path d="M205.143 167.92C205.025 168.001 204.894 168.061 204.756 168.098C204.605 168.142 204.451 168.174 204.295 168.194C204.2 168.206 204.103 168.206 204.008 168.194C203.979 168.192 203.949 168.184 203.923 168.171C203.896 168.158 203.873 168.139 203.853 168.117C203.835 168.089 203.826 168.057 203.826 168.024C203.826 167.991 203.835 167.959 203.853 167.932C203.971 167.789 204.135 167.692 204.316 167.657C204.498 167.622 204.686 167.651 204.849 167.739C204.944 167.79 205.028 167.86 205.097 167.943C205.143 168.005 205.159 168.043 205.155 168.047C205.061 167.941 204.948 167.853 204.822 167.789C204.685 167.725 204.533 167.702 204.384 167.723C204.295 167.732 204.209 167.758 204.13 167.801C204.052 167.843 203.983 167.901 203.927 167.97C203.884 168.043 203.927 168.105 204.031 168.117C204.12 168.124 204.21 168.124 204.299 168.117C204.452 168.101 204.603 168.074 204.752 168.036C204.984 167.974 205.139 167.908 205.143 167.92Z" fill="#909598"/>
<path d="M205.05 167.986C204.964 167.925 204.903 167.834 204.88 167.731C204.844 167.623 204.836 167.508 204.856 167.395C204.863 167.322 204.888 167.251 204.929 167.19C204.971 167.128 205.027 167.078 205.093 167.044C205.19 167.013 205.418 167.21 205.434 167.284C205.449 167.357 205.317 167.318 205.313 167.38C205.3 167.49 205.272 167.597 205.232 167.7C205.204 167.799 205.152 167.889 205.081 167.963C205.081 167.963 205.128 167.859 205.178 167.685C205.209 167.583 205.229 167.478 205.236 167.372C205.236 167.264 205.236 167.098 205.116 167.125C204.996 167.152 204.953 167.303 204.93 167.411C204.908 167.511 204.908 167.615 204.93 167.716C204.961 167.81 205.001 167.9 205.05 167.986Z" fill="#909598"/>
<path d="M211.534 164.555C211.534 164.555 211.352 164.62 211.089 164.779C210.744 164.984 210.464 165.28 210.279 165.635C210.099 165.993 210.021 166.394 210.054 166.793C210.082 167.102 210.151 167.28 210.14 167.287C210.128 167.295 210.113 167.245 210.082 167.164C210.042 167.046 210.013 166.924 209.996 166.801C209.946 166.389 210.019 165.972 210.206 165.601C210.397 165.233 210.694 164.931 211.058 164.732C211.167 164.672 211.283 164.623 211.402 164.586C211.445 164.569 211.489 164.558 211.534 164.555Z" fill="#909598"/>
<path d="M209.098 167.079C208.834 167.28 208.545 167.444 208.238 167.569C207.94 167.717 207.625 167.827 207.3 167.897C207.3 167.874 207.688 167.72 208.203 167.511C208.718 167.303 209.086 167.06 209.098 167.079Z" fill="#909598"/>
<path d="M210.322 166.527C210.345 166.527 210.322 166.624 210.322 166.736C210.322 166.848 210.322 166.94 210.322 166.948C210.322 166.956 210.248 166.863 210.248 166.736C210.248 166.608 210.283 166.516 210.322 166.527Z" fill="#909598"/>
<path d="M210.504 165.755C210.504 165.755 210.504 165.844 210.476 165.937C210.449 166.029 210.399 166.099 210.376 166.091C210.353 166.084 210.376 166.002 210.403 165.91C210.43 165.817 210.48 165.748 210.504 165.755Z" fill="#909598"/>
<path d="M211.038 165.188C211.038 165.211 210.961 165.246 210.883 165.32C210.806 165.393 210.763 165.47 210.74 165.462C210.717 165.455 210.74 165.347 210.829 165.258C210.918 165.169 211.034 165.188 211.038 165.188Z" fill="#909598"/>
<path d="M211.445 164.871C211.445 164.871 211.445 164.933 211.398 164.975C211.352 165.018 211.309 165.041 211.294 165.025C211.278 165.01 211.294 164.964 211.34 164.921C211.387 164.879 211.429 164.856 211.445 164.871Z" fill="#909598"/>
<path d="M203.826 86.3143L202.691 72.5358L208.501 72.64C208.501 72.64 208.772 70.606 207.916 66.1521C207.389 63.4196 205.561 61.7446 203.512 60.7488V60.7102L203.334 60.6639C201.646 59.9095 199.843 59.4412 198.001 59.2783L190.854 59.3594C190.854 59.3594 185.397 58.6801 182.376 62.5589C181.214 64.0525 177.611 74.2764 177.611 74.2764L186.187 78.3907L185.373 72.721C185.373 72.721 185.532 76.8314 186.059 78.1244C186.353 78.85 187.221 81.1039 187.221 81.1039L187.113 87.9044L203.826 86.3143Z" fill="#898A8D"/>
<path d="M199.883 70.5373L198.826 75.0375H208.83L208.172 67.4883L199.883 70.5373Z" fill="#898A8D"/>
<path d="M208.83 75.0374C208.393 74.9575 207.95 74.9136 207.506 74.9062C206.684 74.8599 205.549 74.8174 204.295 74.8251C203.04 74.8329 201.909 74.8869 201.087 74.9486C200.643 74.9636 200.201 75.0179 199.767 75.1107C200.209 75.1459 200.653 75.1459 201.095 75.1107C201.916 75.0837 203.032 75.0528 204.298 75.049C205.565 75.0451 206.68 75.049 207.498 75.0683C207.942 75.0929 208.388 75.0826 208.83 75.0374Z" fill="#909598"/>
<path d="M199.453 67.4531C199.403 67.8369 199.391 68.2248 199.418 68.611C199.418 69.3173 199.453 70.2899 199.496 71.3667C199.538 72.4435 199.589 73.4199 199.635 74.1224C199.64 74.5112 199.68 74.8987 199.755 75.2802C199.806 74.8964 199.817 74.5085 199.79 74.1224C199.79 73.4161 199.759 72.4396 199.716 71.3628C199.674 70.286 199.623 69.3134 199.577 68.6071C199.573 68.2194 199.531 67.8329 199.453 67.4531Z" fill="#909598"/>
<g opacity="0.3">
<path d="M190.347 71.3516C190.347 71.3516 192.574 87.7815 198.825 87.3454C198.825 87.3454 201.637 87.3145 202.544 85.4504V84.7171L190.347 71.3516Z" fill="#938F8F"/>
</g>
<g opacity="0.3">
<path d="M199.453 68.4219L198.256 76.4767L199.031 77.8893L200.305 75.1259L199.767 75.1104L199.453 68.4219Z" fill="#938F8F"/>
</g>
<path d="M187.217 81.1121C187.145 80.9911 187.089 80.8614 187.051 80.7261C186.954 80.4753 186.822 80.1086 186.663 79.6493C186.272 78.4536 185.952 77.2357 185.707 76.0021C185.457 74.7686 185.298 73.5187 185.23 72.2622C185.207 71.7797 185.199 71.3899 185.207 71.1043C185.199 70.9646 185.21 70.8245 185.238 70.6875C185.269 70.6875 185.292 71.2819 185.374 72.2313C185.483 73.4763 185.66 74.7145 185.904 75.9403C186.191 77.3761 186.536 78.6613 186.799 79.5837C186.923 80.0121 187.027 80.3788 187.113 80.6798C187.169 80.8179 187.204 80.9636 187.217 81.1121Z" fill="#909598"/>
<path d="M189.746 85.8319C189.692 85.8319 189.537 85.4962 189.402 85.06C189.285 84.7927 189.232 84.5021 189.247 84.2109C189.301 84.2109 189.456 84.5506 189.591 85.0021C189.705 85.2636 189.758 85.5472 189.746 85.8319Z" fill="#909598"/>
<path d="M190.61 85.7707C190.434 85.3962 190.355 84.9833 190.382 84.5704C190.34 84.1598 190.404 83.7452 190.568 83.3662C190.598 83.767 190.598 84.1696 190.568 84.5704C190.612 84.9688 190.627 85.3701 190.61 85.7707Z" fill="#909598"/>
<path d="M186.376 78.5805C186.353 78.6268 184.355 77.6851 181.918 76.4732C179.482 75.2613 177.526 74.2347 177.553 74.1845C177.58 74.1344 179.571 75.0799 182.011 76.2918C184.451 77.5037 186.404 78.5303 186.376 78.5805Z" fill="#909598"/>
<path d="M189.894 60.6911C189.94 58.7382 189.952 56.6849 189.952 56.6849C189.952 56.6849 187.438 56.2025 187 52.9064C186.582 49.7648 187.748 42.3892 187.748 42.3892C191.42 41.0075 195.235 42.2619 197.753 45.226L197.125 61.0771C197.055 62.918 195.409 64.3229 193.43 64.2303C191.435 64.1338 189.851 62.5514 189.894 60.6911Z" fill="#EBE4E2"/>
<path d="M187.558 48.2829C187.554 48.3914 187.591 48.4973 187.664 48.5786C187.736 48.6599 187.837 48.7102 187.945 48.7191C188.001 48.7275 188.057 48.7237 188.111 48.7081C188.165 48.6925 188.215 48.6654 188.258 48.6287C188.3 48.592 188.334 48.5466 188.357 48.4955C188.38 48.4445 188.391 48.3891 188.391 48.3331C188.395 48.2251 188.357 48.1196 188.285 48.0389C188.213 47.9583 188.112 47.9088 188.003 47.9009C187.948 47.8925 187.892 47.8961 187.838 47.9115C187.785 47.9269 187.735 47.9537 187.693 47.9899C187.65 48.0262 187.616 48.0712 187.593 48.1218C187.57 48.1723 187.558 48.2273 187.558 48.2829Z" fill="#909598"/>
<path d="M187.403 47.731C187.453 47.7851 187.79 47.5574 188.232 47.5728C188.673 47.5882 189.007 47.8198 189.065 47.7658C189.123 47.7117 189.038 47.6423 188.898 47.5304C188.704 47.3903 188.471 47.3135 188.232 47.3104C187.996 47.3014 187.764 47.3691 187.57 47.5033C187.426 47.6075 187.376 47.704 187.403 47.731Z" fill="#909598"/>
<path d="M192.171 48.5691C192.167 48.6775 192.205 48.7834 192.277 48.8647C192.349 48.946 192.45 48.9963 192.559 49.0052C192.614 49.0136 192.671 49.0099 192.725 48.9943C192.779 48.9787 192.828 48.9516 192.871 48.9149C192.913 48.8782 192.947 48.8327 192.97 48.7817C192.993 48.7306 193.005 48.6752 193.004 48.6193C193.008 48.5112 192.97 48.4057 192.898 48.3251C192.826 48.2444 192.725 48.1949 192.617 48.187C192.561 48.1786 192.505 48.1823 192.451 48.1977C192.398 48.213 192.348 48.2398 192.306 48.2761C192.264 48.3124 192.23 48.3573 192.206 48.4079C192.183 48.4585 192.171 48.5135 192.171 48.5691Z" fill="#909598"/>
<path d="M192.14 48.0169C192.19 48.0748 192.527 47.8471 192.969 47.8587C193.41 47.8703 193.744 48.1057 193.802 48.0517C193.86 47.9976 193.778 47.9282 193.635 47.8201C193.443 47.6764 193.209 47.5979 192.969 47.5962C192.733 47.5889 192.501 47.6565 192.307 47.7892C192.163 47.8934 192.117 47.9899 192.14 48.0169Z" fill="#909598"/>
<path d="M190.401 51.3323C190.164 51.2505 189.918 51.1999 189.669 51.1818C189.553 51.1818 189.444 51.1393 189.425 51.0622C189.419 50.9419 189.449 50.8226 189.51 50.7187C189.63 50.4446 189.75 50.1513 189.897 49.8503C190.234 49.1117 190.511 48.3477 190.726 47.5654C190.33 48.2742 189.992 49.0138 189.715 49.7769L189.363 50.6531C189.287 50.7906 189.261 50.9501 189.289 51.1046C189.306 51.1463 189.331 51.1838 189.364 51.2145C189.397 51.2452 189.436 51.2683 189.479 51.2821C189.542 51.3004 189.607 51.3107 189.673 51.313C189.914 51.3495 190.158 51.356 190.401 51.3323Z" fill="#909598"/>
<path d="M189.952 56.6854C191.501 56.7472 193.038 56.3798 194.39 55.624C194.39 55.624 193.263 57.851 189.975 57.4612L189.952 56.6854Z" fill="#E7E1E0"/>
<path d="M193.593 46.7004C193.5 46.8432 193.155 46.7815 192.768 46.7004C192.38 46.6194 192.035 46.5538 191.993 46.3878C191.95 46.2219 192.353 46.0019 192.868 46.1061C193.383 46.2103 193.689 46.5769 193.593 46.7004Z" fill="#909598"/>
<path d="M189.076 46.0443C189.041 46.2102 188.689 46.272 188.244 46.2913C187.798 46.3106 187.442 46.2913 187.391 46.1215C187.341 45.9516 187.701 45.7123 188.216 45.6892C188.732 45.666 189.111 45.886 189.076 46.0443Z" fill="#909598"/>
<path d="M190.409 52.4167C190.36 52.4065 190.309 52.4123 190.263 52.4331C190.218 52.454 190.181 52.4888 190.157 52.5325C190.13 52.5852 190.122 52.6453 190.133 52.7033C190.144 52.7612 190.174 52.8139 190.219 52.8529C190.265 52.8892 190.322 52.9089 190.381 52.9089C190.44 52.9089 190.498 52.8892 190.544 52.8529C190.59 52.8149 190.622 52.7627 190.634 52.7046C190.647 52.6466 190.64 52.586 190.614 52.5325C190.585 52.4804 190.54 52.4394 190.485 52.4163C190.43 52.3931 190.369 52.3892 190.312 52.4052" fill="#E7E1E0"/>
<path d="M190.517 52.4626C190.537 52.4433 190.444 52.3313 190.246 52.3738C190.187 52.3884 190.132 52.4187 190.089 52.4615C190.045 52.5043 190.014 52.558 189.998 52.6169C189.977 52.6908 189.979 52.7692 190.003 52.8421C190.028 52.915 190.073 52.979 190.134 53.0261C190.198 53.0692 190.273 53.0922 190.351 53.0922C190.428 53.0922 190.504 53.0692 190.568 53.0261C190.619 52.9913 190.66 52.9429 190.685 52.8863C190.711 52.8297 190.719 52.7671 190.711 52.7057C190.668 52.5012 190.517 52.4703 190.513 52.4973C190.51 52.5243 190.568 52.5938 190.552 52.7134C190.55 52.7432 190.541 52.7719 190.524 52.797C190.508 52.822 190.486 52.8424 190.459 52.8562C190.43 52.8732 190.396 52.8821 190.362 52.8821C190.328 52.8821 190.295 52.8732 190.266 52.8562C190.239 52.8334 190.218 52.804 190.206 52.7708C190.193 52.7377 190.19 52.702 190.196 52.6671C190.2 52.6366 190.212 52.6077 190.23 52.5828C190.249 52.5579 190.273 52.5378 190.3 52.5243C190.405 52.4587 190.502 52.4896 190.517 52.4626Z" fill="#909598"/>
<path d="M196.23 49.0976C195.843 50.0007 194.883 50.6993 195.014 51.6758C195.099 52.3049 195.506 52.8915 195.425 53.5245C195.328 54.2964 194.499 54.8676 194.383 55.6588C194.24 56.6275 195.185 57.3801 195.545 58.2833C196.095 59.6032 195.39 61.0853 195.374 62.5287C195.396 63.6243 195.816 64.6748 196.556 65.4853C197.296 66.2958 198.306 66.8114 199.399 66.9363C200.286 67.0097 201.281 66.7434 201.723 65.9869C202.11 65.3616 202.025 64.5666 202.253 63.8757C202.59 62.8414 203.578 62.0849 203.803 61.0197C204.19 59.0899 201.824 57.4689 201.978 55.4928C202.048 54.6476 202.567 53.9143 202.792 53.0961C202.933 52.5581 202.943 51.9945 202.823 51.4517C202.702 50.9089 202.454 50.4023 202.099 49.9737C201.518 49.2829 200.673 48.8159 200.162 48.0748C199.6 47.2219 199.581 46.1451 199.368 45.1377C199.108 43.9134 198.542 42.7747 197.72 41.828C196.899 40.8813 195.85 40.1576 194.672 39.7246C193.494 39.2916 192.225 39.1635 190.983 39.3522C189.742 39.5409 188.569 40.0402 187.574 40.8035C187.574 40.8035 187.012 43.3469 189.63 43.7753C192.249 44.2037 193.465 43.7097 193.763 44.7557C193.693 45.1865 193.727 45.6278 193.862 46.0432C193.996 46.4585 194.228 46.8361 194.538 47.1447C195.665 48.2948 196.684 48.0478 196.23 49.0976Z" fill="#909598"/>
<path d="M200.41 66.7397C200.329 66.7423 200.248 66.7345 200.17 66.7165C199.942 66.6764 199.719 66.6157 199.503 66.5351C198.705 66.2293 198.005 65.7131 197.478 65.0415C197.105 64.5791 196.812 64.0571 196.614 63.4977C196.388 62.8616 196.268 62.1926 196.261 61.5178C196.253 60.7737 196.348 60.032 196.544 59.314C196.643 58.9349 196.766 58.5624 196.912 58.1986C197.075 57.8376 197.217 57.4678 197.338 57.0909C197.445 56.7201 197.445 56.327 197.338 55.9562C197.225 55.5905 197.077 55.2364 196.897 54.8987C196.718 54.5629 196.568 54.2131 196.447 53.8528C196.328 53.496 196.3 53.1153 196.366 52.7451C196.521 52.0195 196.962 51.4791 197.226 50.9272C197.475 50.4159 197.595 49.8513 197.574 49.2831C197.539 48.4513 197.236 47.653 196.711 47.006C196.505 46.7797 196.285 46.567 196.052 46.3691C196.326 46.5203 196.57 46.719 196.773 46.9558C197.334 47.6035 197.666 48.4172 197.718 49.2715C197.75 49.8651 197.632 50.4572 197.373 50.9928C197.11 51.5641 196.68 52.1082 196.548 52.7721C196.416 53.4359 196.73 54.1345 197.075 54.8061C197.263 55.1543 197.416 55.5201 197.532 55.8983C197.646 56.3021 197.646 56.7296 197.532 57.1333C197.41 57.5185 197.265 57.8961 197.098 58.2642C196.955 58.6208 196.834 58.9855 196.734 59.3564C196.542 60.057 196.446 60.78 196.447 61.5062C196.436 62.7432 196.838 63.9488 197.59 64.9334C198.091 65.5977 198.759 66.1182 199.527 66.4425C200.081 66.6818 200.414 66.7165 200.41 66.7397Z" fill="#80878A"/>
<path d="M200.026 47.2639C199.837 47.3121 199.644 47.3406 199.449 47.3488C198.918 47.4055 198.381 47.3912 197.853 47.3064C197.453 47.2478 197.069 47.11 196.723 46.9012C196.377 46.6925 196.076 46.4168 195.839 46.0906C195.616 45.6791 195.439 45.2441 195.312 44.7938C195.147 44.3446 194.836 43.963 194.429 43.7093C193.581 43.1728 192.585 43.1072 191.718 43.003C190.919 42.9626 190.143 42.7209 189.464 42.3006C189.008 41.9995 188.678 41.5422 188.538 41.0154C188.505 40.8724 188.495 40.7253 188.507 40.5792C188.511 40.5281 188.522 40.4776 188.538 40.4287C188.545 40.6199 188.571 40.8099 188.615 40.9961C188.776 41.4887 189.105 41.9095 189.545 42.1848C190.213 42.5738 190.968 42.7913 191.741 42.8178C192.605 42.9181 193.639 42.9683 194.545 43.5395C194.988 43.8172 195.325 44.2342 195.502 44.7244C195.627 45.1615 195.794 45.5855 196.002 45.9903C196.454 46.6072 197.132 47.0229 197.888 47.1481C198.399 47.243 198.919 47.278 199.437 47.2523C199.634 47.2417 199.83 47.2456 200.026 47.2639Z" fill="#80878A"/>
<path d="M199.062 44.1223C198.916 44.1722 198.762 44.1944 198.608 44.1879C197.886 44.1928 197.191 43.9157 196.672 43.416C196.435 43.1793 196.233 42.9103 196.071 42.6171C195.719 42.0305 195.386 41.3087 194.661 41.0077C193.962 40.7738 193.218 40.709 192.489 40.8186C191.874 40.9045 191.251 40.9045 190.637 40.8186C190.217 40.7561 189.821 40.5799 189.494 40.3091C189.409 40.2333 189.332 40.1478 189.266 40.0544C189.222 39.9875 189.203 39.9528 189.208 39.9502C189.208 39.9502 189.316 40.0737 189.545 40.2474C189.874 40.4822 190.258 40.6309 190.66 40.6796C191.263 40.7474 191.873 40.7371 192.473 40.6488C193.234 40.5245 194.014 40.5908 194.743 40.8417C195.116 41.0095 195.435 41.2766 195.665 41.6136C195.87 41.9145 196.059 42.2263 196.23 42.5477C196.38 42.8288 196.568 43.0885 196.788 43.3196C196.984 43.5157 197.208 43.681 197.454 43.8097C197.814 43.9976 198.21 44.1068 198.616 44.1301C198.899 44.1262 199.062 44.103 199.062 44.1223Z" fill="#80878A"/>
<path d="M201.568 65.9055C201.568 65.9055 201.668 65.6508 201.812 65.1722C202.007 64.5006 202.095 63.8024 202.071 63.1035C202.039 62.0699 201.756 61.0594 201.246 60.1587C200.963 59.6531 200.53 59.2016 200.181 58.6458C199.994 58.3627 199.863 58.0471 199.794 57.7156C199.735 57.3666 199.764 57.0084 199.879 56.6736C200.096 56.0059 200.487 55.4462 200.568 54.8326C200.65 54.2189 200.363 53.6747 200.069 53.1614C199.915 52.9125 199.777 52.6547 199.654 52.3895C199.541 52.133 199.466 51.8612 199.433 51.5829C199.398 51.0925 199.412 50.5999 199.476 50.1124C199.601 49.4241 199.538 48.715 199.294 48.0591C199.184 47.8295 199.029 47.6246 198.837 47.457C198.837 47.457 198.837 47.457 198.883 47.4802C198.928 47.5048 198.97 47.5346 199.007 47.569C199.158 47.695 199.279 47.8516 199.364 48.0282C199.645 48.6889 199.734 49.4153 199.619 50.124C199.566 50.6021 199.559 51.0842 199.6 51.5636C199.694 52.1033 199.908 52.6151 200.227 53.0611C200.393 53.3219 200.534 53.597 200.65 53.8831C200.77 54.1924 200.81 54.527 200.766 54.8557C200.673 55.5312 200.274 56.1024 200.073 56.7315C199.967 57.035 199.939 57.36 199.991 57.677C200.056 57.984 200.178 58.276 200.351 58.5377C200.685 59.0742 201.126 59.5335 201.409 60.0622C201.929 60.9915 202.207 62.0358 202.218 63.0997C202.231 63.8116 202.121 64.5204 201.893 65.1954C201.828 65.3768 201.753 65.5546 201.668 65.728C201.641 65.7907 201.608 65.8503 201.568 65.9055Z" fill="#80878A"/>
<path d="M185.788 137.82C185.788 137.82 183.181 113.181 183.03 104.076C182.879 94.9717 187.14 85.9868 187.14 85.9868L203.826 85.2959C203.826 85.2959 207.126 94.5317 207.184 98.4183C207.301 105.96 205.174 113.405 205.418 119.387L205.976 137.836" fill="#909598"/>
<path d="M206.534 107.526C206.45 107.604 206.359 107.673 206.262 107.735L206.111 107.839C206.057 107.885 206.007 107.939 205.949 107.997C205.804 108.12 205.674 108.258 205.561 108.41C205.023 109.066 204.628 110.243 204.256 111.706C204.064 112.518 203.781 113.305 203.412 114.053C203.298 114.257 203.168 114.452 203.024 114.636C202.951 114.728 202.885 114.829 202.807 114.917L202.548 115.172C202.183 115.515 201.758 115.787 201.293 115.975C200.36 116.384 199.306 116.577 198.342 117.059C197.359 117.589 196.599 118.451 196.2 119.491C195.731 120.537 195.448 121.633 195.038 122.66C194.627 123.686 194.131 124.667 193.298 125.292C192.497 125.846 191.544 126.144 190.568 126.145C189.669 126.199 188.836 126.172 188.089 126.284C187.433 126.358 186.806 126.597 186.268 126.978C185.865 127.291 185.563 127.715 185.401 128.198C185.297 128.502 185.274 128.828 185.335 129.144C185.377 129.36 185.439 129.464 185.424 129.468C185.364 129.37 185.321 129.263 185.296 129.151C185.215 128.83 185.224 128.492 185.323 128.175C185.48 127.669 185.785 127.222 186.199 126.89C186.758 126.468 187.42 126.202 188.116 126.118C188.891 125.994 189.716 126.01 190.603 125.952C191.543 125.947 192.459 125.656 193.229 125.118C194.013 124.437 194.592 123.552 194.902 122.563C195.289 121.548 195.568 120.448 196.064 119.383C196.48 118.3 197.274 117.403 198.299 116.855C199.302 116.361 200.356 116.172 201.266 115.778C201.712 115.595 202.121 115.334 202.474 115.006L202.722 114.763C202.8 114.678 202.862 114.582 202.931 114.493C203.069 114.317 203.191 114.13 203.295 113.933C203.664 113.195 203.949 112.418 204.148 111.617C204.535 110.159 204.961 108.966 205.53 108.306C205.644 108.156 205.774 108.018 205.918 107.897C205.98 107.843 206.034 107.789 206.092 107.746L206.251 107.646C206.343 107.6 206.437 107.56 206.534 107.526Z" fill="#FAFAFA"/>
<path d="M206.638 96.126C206.646 96.2352 206.646 96.3448 206.638 96.454C206.637 96.7727 206.598 97.0901 206.522 97.3996C206.189 98.5278 205.535 99.5358 204.639 100.302C204.047 100.844 203.398 101.322 202.703 101.726C201.955 102.166 201.13 102.587 200.286 103.065C199.394 103.541 198.563 104.123 197.811 104.798C197.042 105.56 196.41 106.446 195.94 107.419C195.464 108.406 194.92 109.359 194.313 110.271C194.007 110.696 193.652 111.085 193.256 111.429C192.869 111.754 192.447 112.033 191.997 112.263C191.163 112.67 190.295 113.002 189.402 113.255C188.573 113.509 187.802 113.737 187.128 114.026C186.516 114.269 185.934 114.58 185.393 114.953C184.984 115.233 184.616 115.57 184.301 115.952C184.039 116.284 183.82 116.647 183.65 117.033C183.675 116.926 183.71 116.821 183.754 116.72C183.881 116.429 184.044 116.154 184.239 115.902C184.55 115.505 184.917 115.154 185.327 114.86C185.87 114.474 186.454 114.15 187.07 113.895C187.816 113.593 188.578 113.329 189.351 113.104C190.231 112.847 191.086 112.514 191.908 112.108C192.344 111.882 192.753 111.607 193.128 111.29C193.512 110.952 193.857 110.571 194.154 110.155C194.752 109.247 195.289 108.301 195.762 107.322C196.242 106.33 196.889 105.427 197.675 104.652C198.44 103.968 199.286 103.38 200.193 102.899C201.049 102.425 201.874 102.012 202.618 101.576C203.311 101.186 203.96 100.723 204.554 100.194C205.443 99.4506 206.103 98.4728 206.46 97.3726C206.564 96.9646 206.623 96.5467 206.638 96.126Z" fill="#FAFAFA"/>
<path d="M183.115 105.366C183.1 105.342 183.088 105.316 183.081 105.288C183.051 105.214 183.027 105.138 183.007 105.061C182.94 104.754 182.954 104.435 183.046 104.134C183.259 103.363 184.119 102.371 185.497 101.88C186.183 101.645 186.965 101.494 187.775 101.294C188.643 101.112 189.445 100.702 190.099 100.105C190.43 99.7617 190.708 99.3715 190.924 98.9472C191.147 98.4982 191.341 98.0354 191.505 97.5616C191.806 96.5337 192.218 95.5412 192.733 94.6014C193.321 93.6768 194.214 92.985 195.258 92.6446C196.208 92.3371 197.177 92.0921 198.159 91.9113C199.035 91.7443 199.882 91.4559 200.677 91.0545C201.354 90.6716 201.937 90.1444 202.385 89.5107C203.047 88.5971 203.424 87.51 203.47 86.3845C203.472 85.9713 203.443 85.5584 203.385 85.1494C203.502 85.5504 203.557 85.9669 203.547 86.3845C203.53 87.534 203.166 88.6518 202.501 89.5917C202.047 90.2463 201.452 90.791 200.758 91.1857C199.952 91.602 199.09 91.9022 198.198 92.0773C197.227 92.2613 196.268 92.5075 195.328 92.8144C194.325 93.1406 193.467 93.8053 192.903 94.694C192.396 95.621 191.99 96.5991 191.691 97.6118C191.522 98.0935 191.323 98.564 191.094 99.0205C190.866 99.4591 190.575 99.8621 190.231 100.217C189.55 100.835 188.713 101.256 187.81 101.433C186.989 101.641 186.21 101.772 185.536 101.996C184.192 102.452 183.34 103.39 183.111 104.138C183.014 104.426 182.988 104.734 183.038 105.034C183.088 105.269 183.123 105.366 183.115 105.366Z" fill="#FAFAFA"/>
<path d="M205.201 126.207C205.219 126.287 205.228 126.368 205.228 126.45C205.237 126.684 205.214 126.918 205.158 127.145C204.912 127.98 204.398 128.712 203.694 129.229C203.223 129.603 202.701 129.909 202.145 130.14C201.511 130.393 200.865 130.615 200.208 130.804C199.494 131.011 198.795 131.269 198.117 131.576C197.394 131.906 196.744 132.377 196.207 132.961C195.642 133.548 195.157 134.192 194.615 134.764C194.096 135.317 193.494 135.786 192.829 136.153C191.699 136.768 190.434 137.096 189.146 137.11C188.282 137.119 187.423 136.977 186.609 136.689C186.389 136.613 186.174 136.521 185.966 136.415C185.891 136.383 185.82 136.343 185.753 136.296C185.833 136.314 185.911 136.341 185.985 136.377C186.198 136.468 186.415 136.548 186.636 136.616C187.446 136.869 188.293 136.988 189.142 136.967C190.403 136.936 191.637 136.601 192.74 135.991C193.384 135.628 193.968 135.168 194.472 134.629C195.002 134.065 195.487 133.424 196.064 132.822C196.618 132.221 197.287 131.736 198.031 131.394C198.72 131.087 199.429 130.829 200.154 130.622C200.84 130.414 201.49 130.236 202.091 129.982C202.633 129.762 203.142 129.47 203.605 129.113C204.298 128.624 204.815 127.926 205.081 127.122C205.154 126.822 205.194 126.515 205.201 126.207Z" fill="#FAFAFA"/>
<path d="M203.299 75.0531L200.073 75.1303C199.946 75.7787 199.699 76.3979 199.345 76.9558C196.633 72.2858 194.553 66.0334 194.034 63.5208C194.108 63.27 194.201 62.9921 194.309 62.6833C194.392 62.2145 194.377 61.7338 194.267 61.2707C194.178 60.7111 194.023 59.9585 193.972 59.6111C193.829 58.5459 193.658 58.38 193.287 58.4996C192.779 58.6656 193.496 61.483 193.081 61.5448C192.857 61.5756 192.586 60.6108 192.504 59.8196C192.423 59.0283 192.067 56.5891 191.803 56.427C191.416 56.1877 191.083 56.566 191.18 57.3533C191.276 58.1407 191.404 60.5336 190.982 60.5683C190.56 60.603 190.207 56.5583 190.207 56.5583C190.207 56.5583 190.269 55.6783 189.785 55.6976C188.906 55.7362 189.591 59.9971 189.669 60.4023C189.719 60.6802 189.282 60.7343 189.224 60.4294C189.165 60.1245 188.972 56.3884 188.062 56.4193C187.376 56.4193 188.592 59.9276 188.209 60.7381C187.825 61.5486 187.554 57.9901 186.9 58.0364C186.659 58.0557 186.477 58.1021 186.927 60.1129C187.355 61.7111 187.872 63.2843 188.476 64.8254C189.514 70.4024 194.069 88.2449 201.208 84.9798C205.201 83.1504 206.824 75.0531 206.824 75.0531H203.299Z" fill="#EBE4E2"/>
<path d="M189.529 60.6721C189.56 60.6798 189.592 60.6798 189.622 60.6721C189.669 60.6579 189.71 60.6278 189.737 60.5868C189.764 60.5459 189.775 60.4968 189.77 60.4483C189.77 60.209 189.723 59.8616 189.665 59.41C189.578 58.8653 189.519 58.3166 189.487 57.7659C189.487 57.4417 189.487 57.0943 189.51 56.7277C189.514 56.5411 189.533 56.3552 189.568 56.1719C189.595 55.9982 189.715 55.786 189.851 55.8207H189.87C190.01 55.8207 190.118 55.921 190.161 56.0831C190.209 56.251 190.226 56.4263 190.211 56.6003C190.295 57.6808 190.433 58.7564 190.626 59.823C190.657 59.9658 190.691 60.1125 190.734 60.2591C190.757 60.3338 190.784 60.4071 190.815 60.4791C190.834 60.5197 190.856 60.5584 190.881 60.5949C190.899 60.6231 190.922 60.6469 190.951 60.6643C190.979 60.6817 191.011 60.6923 191.044 60.6953C191.203 60.6953 191.249 60.5602 191.288 60.4907C191.32 60.4151 191.343 60.3361 191.358 60.2553C191.39 60.1 191.41 59.9427 191.42 59.7844C191.456 59.1414 191.448 58.4966 191.396 57.8547C191.348 57.5341 191.334 57.2094 191.354 56.8859C191.361 56.8163 191.381 56.7487 191.414 56.6871C191.448 56.6255 191.493 56.5711 191.547 56.527C191.572 56.5123 191.6 56.5029 191.629 56.4996C191.657 56.4963 191.686 56.499 191.714 56.5077C191.745 56.5163 191.775 56.5293 191.803 56.5463C191.83 56.5694 191.822 56.5463 191.846 56.6042C191.971 56.9164 192.062 57.2412 192.117 57.5729C192.183 57.9125 192.245 58.2638 192.299 58.615C192.353 58.9662 192.403 59.3213 192.446 59.6802C192.477 60.0508 192.537 60.4186 192.624 60.7802C192.668 60.9658 192.726 61.1477 192.798 61.3244C192.837 61.4235 192.89 61.516 192.957 61.5984C192.985 61.6322 193.021 61.658 193.062 61.673C193.103 61.6879 193.147 61.6915 193.19 61.6833C193.228 61.6689 193.262 61.6457 193.29 61.6155C193.318 61.5853 193.338 61.549 193.348 61.5096C193.393 61.3122 193.406 61.109 193.387 60.9075C193.387 60.7146 193.364 60.5216 193.348 60.3363C193.321 60.0121 193.29 59.6918 193.279 59.3753C193.269 59.2198 193.269 59.0638 193.279 58.9083C193.285 58.8396 193.301 58.7721 193.325 58.7076C193.334 58.686 193.348 58.6664 193.364 58.6497H193.414C193.67 58.5455 193.755 58.9006 193.825 59.1862C193.895 59.4718 193.922 59.796 193.98 60.1009C194.084 60.7068 194.212 61.3128 194.282 61.8917C194.327 62.1691 194.316 62.4528 194.247 62.7254C194.154 63.0033 194.065 63.2773 193.976 63.5513V63.5783V63.6015C194.431 65.4977 195.011 67.362 195.711 69.1824C196.323 70.8304 196.935 72.27 197.477 73.4278C198.02 74.5857 198.5 75.4927 198.837 76.1025C199.004 76.3958 199.139 76.6235 199.224 76.7933C199.268 76.8739 199.317 76.9512 199.371 77.0249C199.342 76.9387 199.303 76.8559 199.255 76.7779L198.868 76.0716C198.554 75.4502 198.093 74.5278 197.567 73.3699C197.04 72.2121 196.447 70.7725 195.847 69.1245C195.164 67.3073 194.598 65.4483 194.154 63.559V63.6131C194.243 63.3429 194.336 63.0689 194.425 62.7948C194.505 62.494 194.522 62.1801 194.476 61.8724C194.406 61.2665 194.278 60.6798 194.177 60.07C194.119 59.769 194.081 59.4602 194.019 59.1437C193.988 58.9777 193.935 58.8166 193.86 58.6652C193.814 58.5719 193.74 58.496 193.647 58.449C193.547 58.4166 193.44 58.4166 193.341 58.449H193.275C193.243 58.4596 193.214 58.4767 193.19 58.4992C193.146 58.5354 193.111 58.5818 193.089 58.6343C193.056 58.7185 193.036 58.8068 193.027 58.8967C193.015 59.0638 193.015 59.2314 193.027 59.3985C193.027 59.7227 193.07 60.0469 193.097 60.3711C193.097 60.5602 193.132 60.757 193.139 60.9307C193.154 61.105 193.143 61.2804 193.108 61.4517C193.108 61.4903 193.081 61.4826 193.108 61.5019L193.085 61.4787C193.036 61.4151 192.995 61.345 192.965 61.2703C192.897 61.1039 192.842 60.9322 192.802 60.757C192.717 60.4055 192.659 60.0482 192.628 59.6879C192.585 59.3251 192.531 58.9662 192.477 58.6111C192.423 58.256 192.361 57.9087 192.291 57.5613C192.231 57.2082 192.132 56.8626 191.997 56.5308C191.967 56.4766 191.924 56.4302 191.873 56.3958C191.828 56.3683 191.78 56.3475 191.729 56.334C191.675 56.3194 191.618 56.316 191.562 56.324C191.506 56.3319 191.452 56.3511 191.404 56.3803C191.324 56.4398 191.258 56.5151 191.208 56.6014C191.159 56.6877 191.128 56.7833 191.117 56.8821C191.092 57.0574 191.092 57.2354 191.117 57.4108C191.137 57.5768 191.152 57.7389 191.168 57.901C191.22 58.5326 191.231 59.1668 191.203 59.7999C191.194 59.9502 191.174 60.0998 191.145 60.2476C191.13 60.3157 191.11 60.3827 191.086 60.4483C191.076 60.4737 191.062 60.4972 191.044 60.5177C191.044 60.5525 191.017 60.5177 191.017 60.564C191.04 60.5254 191.017 60.564 191.017 60.5139C190.998 60.4887 190.983 60.4615 190.97 60.4328C190.942 60.3688 190.917 60.303 190.897 60.236C190.854 60.097 190.819 59.9542 190.788 59.8153C190.56 58.6806 190.451 57.5999 190.351 56.6196C190.363 56.4258 190.342 56.2312 190.289 56.0445C190.261 55.948 190.209 55.8601 190.137 55.7898C190.06 55.7183 189.957 55.6796 189.851 55.6817H189.87C189.805 55.673 189.739 55.6833 189.68 55.7114C189.621 55.7395 189.571 55.7842 189.537 55.84C189.478 55.9319 189.438 56.034 189.417 56.141C189.384 56.3322 189.367 56.5259 189.367 56.72C189.367 57.1059 189.367 57.4417 189.367 57.7697C189.406 58.3241 189.479 58.8757 189.584 59.4216C189.649 59.8693 189.7 60.2167 189.723 60.4521C189.73 60.4938 189.723 60.5367 189.701 60.5734C189.68 60.61 189.647 60.6381 189.607 60.6528L189.529 60.6721Z" fill="#E7E1E0"/>
<path d="M164.306 80.3671C163.551 80.351 162.796 80.438 162.064 80.6257C160.061 81.1506 156.61 83.2347 156.467 85.809H158.973C158.973 85.809 157.571 88.7886 157.981 88.5107C159.054 87.7928 161.185 85.6354 161.185 85.6354L164.306 80.3671Z" fill="#EBE4E2"/>
<path d="M198.516 35.508C198.461 35.508 198.233 33.447 198.008 30.8765C197.783 28.3061 197.644 26.2451 197.702 26.2451C197.76 26.2451 197.985 28.3061 198.21 30.8765C198.434 33.447 198.574 35.508 198.516 35.508Z" fill="#909598"/>
<path d="M209.52 26.4036C209.566 26.4345 207.87 28.8853 205.735 31.8764C203.601 34.8675 201.831 37.2797 201.788 37.2334C201.746 37.1871 203.435 34.7518 205.573 31.7606C207.711 28.7695 209.473 26.3727 209.52 26.4036Z" fill="#909598"/>
<path d="M214.09 37.5112C214.09 37.5652 212.126 38.0168 209.675 38.5185C207.223 39.0203 205.228 39.3831 205.216 39.329C205.205 39.275 207.184 38.8234 209.636 38.3217C212.088 37.82 214.082 37.4572 214.09 37.5112Z" fill="#909598"/>
<path d="M82.3547 90.5208L68.6586 160.687L66.8652 169.873L158.303 169.433C162.405 169.413 166.05 165.781 167.363 160.386L183.596 94.1372C184.599 90.0422 182.399 85.7813 179.285 85.7852L86.7393 85.8816C84.6787 85.8855 82.8892 87.7844 82.3547 90.5208Z" fill="#898A8D"/>
<g opacity="0.5">
<path d="M82.3547 90.5208L68.6586 160.687L66.8652 169.873L158.303 169.433C162.405 169.413 166.05 165.781 167.363 160.386L183.596 94.1372C184.599 90.0422 182.399 85.7813 179.285 85.7852L86.7393 85.8816C84.6787 85.8855 82.8892 87.7844 82.3547 90.5208Z" fill="#A9A7A7"/>
</g>
<path d="M149.53 155.924L139.846 78.1897C139.459 75.0056 136.903 72.6281 133.897 72.6397L112.667 72.7053C111.879 72.7147 111.101 72.8838 110.381 73.2022C109.66 73.5207 109.012 73.982 108.476 74.5579L98.4058 85.2372L39.3685 85.5421C35.7586 85.5614 32.9891 88.9655 33.4655 92.7864L42.4555 164.631C42.8429 167.812 45.3915 170.185 48.3972 170.181L151.288 169.977C162.749 170.212 163.842 166.843 163.842 166.843C150.703 169.753 149.534 155.944 149.53 155.924Z" fill="#B1B3B8"/>
<g opacity="0.5">
<path d="M105.165 140.378L101.694 144.091L74.9683 120.131L78.4388 116.418L105.165 140.378Z" fill="white"/>
<path d="M100.242 115.596L104.076 119.035L79.8912 144.913L76.0566 141.474L100.242 115.596Z" fill="white"/>
</g>
<path d="M164.229 40.054C164.104 40.0013 163.996 39.9142 163.919 39.8028C163.841 39.6914 163.797 39.5603 163.791 39.4249L163.636 35.8432C163.631 35.7319 163.652 35.6209 163.697 35.5189C163.742 35.4169 163.81 35.3268 163.896 35.2557C163.982 35.1845 164.084 35.1343 164.192 35.109C164.301 35.0837 164.415 35.084 164.523 35.1099C164.823 35.1745 165.132 35.1774 165.433 35.1183C165.733 35.0592 166.018 34.9395 166.27 34.7664C166.503 34.619 166.704 34.426 166.859 34.1991C167.015 33.9722 167.123 33.7162 167.177 33.4465C167.211 33.1733 167.19 32.8962 167.115 32.6311C167.041 32.3661 166.914 32.1185 166.743 31.9026C166.561 31.6577 166.333 31.4508 166.071 31.2939C165.809 31.1369 165.519 31.0329 165.217 30.9879C164.607 30.9542 164.004 31.1263 163.505 31.4765C163.006 31.8268 162.64 32.3345 162.467 32.9177C162.445 33.0127 162.404 33.1023 162.346 33.181C162.288 33.2598 162.215 33.326 162.131 33.3759C162.047 33.4257 161.954 33.4581 161.857 33.471C161.76 33.4839 161.661 33.4771 161.567 33.451C161.473 33.4249 161.385 33.3801 161.308 33.3192C161.232 33.2583 161.169 33.1826 161.123 33.0967C161.076 33.0108 161.048 32.9164 161.039 32.8194C161.031 32.7223 161.042 32.6244 161.072 32.5317C161.338 31.6156 161.913 30.8188 162.7 30.2754C163.486 29.732 164.437 29.4753 165.391 29.5483C165.888 29.6143 166.367 29.7792 166.799 30.0331C167.23 30.287 167.607 30.6249 167.905 31.0265C168.205 31.3933 168.423 31.8194 168.545 32.2766C168.667 32.7337 168.69 33.2115 168.613 33.6782C168.536 34.145 168.36 34.59 168.097 34.9839C167.834 35.3778 167.49 35.7115 167.088 35.9629C166.507 36.3527 165.828 36.5732 165.128 36.5997L165.248 39.3631C165.255 39.5539 165.186 39.7398 165.056 39.8802C164.926 40.0205 164.746 40.1038 164.554 40.1118C164.443 40.1184 164.331 40.0985 164.229 40.054Z" fill="#898A8D"/>
<path d="M165.282 41.5204C165.29 41.6359 165.262 41.751 165.204 41.8512C165.146 41.9513 165.059 42.0321 164.955 42.0834C164.851 42.1346 164.734 42.154 164.619 42.1391C164.504 42.1242 164.396 42.0757 164.308 41.9997C164.22 41.9237 164.157 41.8235 164.127 41.7119C164.096 41.6002 164.099 41.482 164.136 41.3722C164.173 41.2624 164.241 41.1658 164.333 41.0946C164.424 41.0235 164.535 40.9809 164.651 40.9723C164.729 40.9666 164.807 40.9762 164.881 41.0007C164.954 41.0252 165.023 41.064 165.081 41.115C165.14 41.166 165.188 41.2281 165.223 41.2976C165.257 41.3672 165.277 41.4429 165.282 41.5204Z" fill="#898A8D"/>
<path d="M151.776 35.0019C151.798 34.9265 151.809 34.8487 151.811 34.7703C151.83 34.6005 151.858 34.3843 151.888 34.0794C151.925 33.7051 151.987 33.3338 152.074 32.9679C152.115 32.7325 152.168 32.4994 152.233 32.2693C152.307 32.0262 152.388 31.7637 152.473 31.4974C152.922 30.178 153.575 28.9368 154.41 27.8193C155.788 25.9998 157.625 24.5756 159.734 23.6911C161.842 22.8066 164.148 22.4932 166.417 22.7826C166.716 22.8135 167.006 22.8907 167.304 22.9409C167.606 22.9919 167.904 23.0641 168.195 23.157C169.432 23.4946 170.608 24.0219 171.681 24.7201C174.041 26.2451 175.838 28.494 176.802 31.1269C177.319 32.5378 177.581 34.0287 177.576 35.5306C177.591 37.0783 177.315 38.6151 176.763 40.0617L176.589 40.5017L176.565 40.5596L176.589 40.6175L179.439 47.1516L179.602 46.9664L173.792 44.7472L173.722 44.7201L173.664 44.7742C172.126 46.2565 170.245 47.3382 168.187 47.9235C166.328 48.4367 164.377 48.5251 162.478 48.1821C160.771 47.8922 159.142 47.2565 157.691 46.3141C156.437 45.4966 155.333 44.472 154.426 43.2844C153.109 41.5522 152.256 39.5149 151.947 37.3639C151.9 36.9779 151.857 36.6537 151.823 36.3604C151.788 36.0671 151.823 35.8278 151.803 35.6232C151.784 35.4187 151.803 35.2836 151.803 35.1717C151.807 35.1203 151.807 35.0687 151.803 35.0173C151.8 35.0687 151.8 35.1203 151.803 35.1717C151.803 35.2836 151.803 35.4341 151.803 35.6232V36.3681C151.834 36.6615 151.869 36.9972 151.904 37.3793C152.035 38.3069 152.257 39.2195 152.566 40.1042C153.013 41.2703 153.61 42.3732 154.344 43.3847C155.256 44.5926 156.368 45.6368 157.633 46.4724C159.181 47.4881 160.928 48.1641 162.759 48.4555C164.589 48.747 166.461 48.6472 168.249 48.1628C170.349 47.5729 172.27 46.4736 173.839 44.9633L173.711 44.9903L179.521 47.2211L179.815 47.333L179.687 47.0359C178.762 44.917 177.813 42.7325 176.84 40.5017V40.6136L177.023 40.162C177.566 38.6716 177.825 37.0929 177.786 35.5075C177.798 33.9734 177.535 32.4495 177.011 31.0073C176.024 28.3231 174.187 26.0321 171.778 24.4808C170.689 23.7752 169.498 23.2414 168.246 22.8984C167.949 22.8054 167.646 22.7344 167.339 22.6861C167.033 22.6321 166.735 22.5549 166.437 22.5279C165.843 22.4546 165.245 22.4211 164.647 22.4275C163.511 22.4329 162.381 22.586 161.285 22.883C160.272 23.1708 159.297 23.5776 158.38 24.0949C156.774 24.9962 155.377 26.226 154.282 27.7035C153.453 28.8405 152.809 30.1015 152.377 31.4395L152.144 32.2114C152.071 32.4546 152.047 32.6977 152.001 32.9177C151.919 33.2864 151.863 33.6604 151.834 34.037C151.815 34.3342 151.799 34.5619 151.784 34.7317C151.776 34.8215 151.773 34.9117 151.776 35.0019Z" fill="#909598"/>
</svg>
