<svg width="24" height="24" viewBox="0 0 24 24" fill="none" xmlns="http://www.w3.org/2000/svg">
<path d="M2 15.16H5V3.16005H2C1.73478 3.16005 1.48043 3.2654 1.29289 3.45294C1.10536 3.64047 1 3.89483 1 4.16005V14.16C1 14.4253 1.10536 14.6796 1.29289 14.8672C1.48043 15.0547 1.73478 15.16 2 15.16ZM7.293 16.453L13.693 22.853C13.7781 22.9384 13.8911 22.9901 14.0112 22.9987C14.1314 23.0073 14.2506 22.9723 14.347 22.9L15.2 22.26C15.4369 22.0822 15.6158 21.8382 15.7143 21.5588C15.8127 21.2794 15.8262 20.9771 15.753 20.69L14.6 16.16H21C21.5304 16.16 22.0391 15.9493 22.4142 15.5743C22.7893 15.1992 23 14.6905 23 14.16V12.056C23.0003 11.7947 22.9493 11.5358 22.85 11.294L19.755 3.77905C19.6795 3.59583 19.5513 3.43917 19.3866 3.32896C19.2219 3.21876 19.0282 3.15996 18.83 3.16005H8C7.73478 3.16005 7.48043 3.2654 7.29289 3.45294C7.10536 3.64047 7 3.89483 7 4.16005V15.746C7.00006 16.0112 7.10545 16.2656 7.293 16.453Z" fill="#0A0D13"/>
</svg>
